<svg xmlns="http://www.w3.org/2000/svg" viewBox="0 0 800 800" fill="none">
  <defs>
    <filter id="glow" x="-50%" y="-50%" width="200%" height="200%">
      <feGaussianBlur stdDeviation="8" result="blur" />
      <feMerge>
        <feMergeNode in="blur" />
        <feMergeNode in="SourceGraphic" />
      </feMerge>
    </filter>
  </defs>
  <g filter="url(#glow)" stroke="#00daf3" stroke-width="28" stroke-linecap="round">
    <path d="M 447.9,268.4 A 140 140 0 0 1 531.6,352.1" />
    <path d="M 352.1,268.4 A 140 140 0 0 1 447.9,268.4" />
    <path d="M 531.6,352.1 A 140 140 0 0 1 531.6,447.9" />
    <path d="M 447.9,531.6 A 140 140 0 0 1 352.1,531.6" />
    <path d="M 268.4,447.9 A 140 140 0 0 1 268.4,352.1" />
    <path d="M 268.4,352.1 A 140 140 0 0 1 352.1,268.4" />
    <path d="M 285.3,480.3 A 140 140 0 0 1 268.4,447.9" />
    <path d="M 531.6,447.9 A 140 140 0 0 1 447.9,531.6" />
  </g>
  <g fill="#0b1326" stroke="#00daf3" stroke-width="18">
    <circle cx="400" cy="180" r="45" />
    <circle cx="620" cy="400" r="45" />
    <circle cx="400" cy="620" r="45" />
    <circle cx="180" cy="400" r="45" />
  </g>
</svg>
